<?xml version="1.0" encoding="utf-8"?>
<!-- Generator: Adobe Illustrator 24.0.2, SVG Export Plug-In . SVG Version: 6.00 Build 0)  -->
<svg version="1.1" id="Layer_1" xmlns="http://www.w3.org/2000/svg" xmlns:xlink="http://www.w3.org/1999/xlink" x="0px" y="0px"
	 viewBox="0 0 68.6 59.4" style="enable-background:new 0 0 68.6 59.4;" xml:space="preserve">
<style type="text/css">
	.st0{fill:#13A7B1;}
</style>
<g>
	<path class="st0" d="M11.1,32.14"/>
	<path class="st0" d="M34.29,6.78c-13.44,0-24.33,10.89-24.33,24.33s10.89,24.33,24.33,24.33s24.33-10.89,24.33-24.33
		C58.6,17.68,47.72,6.79,34.29,6.78z M25.73,22.55h3.06V36c0,1.83,0.48,3.24,1.44,4.25c1.04,1.04,2.48,1.59,3.95,1.51
		c1.48,0.07,2.92-0.47,3.97-1.51c0.98-1.01,1.46-2.42,1.46-4.25V22.55h5.5c0.34,0,0.62,0.27,0.63,0.6v13.03
		c0.03,1.99-0.49,3.94-1.51,5.64c-0.99,1.64-2.43,2.98-4.13,3.85c-3.72,1.83-8.07,1.83-11.79,0c-1.7-0.87-3.13-2.21-4.11-3.85
		c-1.01-1.71-1.53-3.66-1.51-5.64V23.2c0-0.17,0.07-0.34,0.19-0.46c0.12-0.12,0.29-0.19,0.46-0.19H25.73z M23.6,18.3
		c0-1.32,1.07-2.39,2.39-2.39s2.39,1.07,2.39,2.39c0,1.32-1.07,2.39-2.39,2.39h0C24.67,20.69,23.61,19.62,23.6,18.3L23.6,18.3z
		 M40.22,18.3c0-1.32,1.07-2.39,2.39-2.4c1.32,0,2.39,1.07,2.4,2.39c0,1.32-1.07,2.39-2.39,2.4c0,0,0,0-0.01,0
		c-1.32,0.01-2.4-1.06-2.41-2.38c0,0,0-0.01,0-0.01H40.22z"/>
	<path class="st0" d="M34.29,3.74c-6.11,0-12.04,2.05-16.85,5.83c0.16,0.17,0.3,0.36,0.4,0.57c11.6-9.09,28.38-7.04,37.46,4.56
		s7.04,28.38-4.56,37.46S22.36,59.2,13.27,47.6c-8.07-10.3-7.47-24.94,1.41-34.55c-0.2-0.12-0.38-0.28-0.53-0.46
		C3.93,23.71,4.67,41.02,15.79,51.24s28.43,9.48,38.65-1.64s9.48-28.43-1.64-38.65C47.75,6.3,41.15,3.73,34.29,3.74L34.29,3.74z"/>
	<circle class="st0" cx="15.84" cy="11.13" r="1.56"/>
</g>
</svg>
